<?xml version="1.0" encoding="utf-8" ?><svg xmlns="http://www.w3.org/2000/svg" baseProfile="tiny-ps" version="1.2" width="1000" height="1000" viewBox="0 0 1000 1000"><title>Modryn Studio</title><desc>Modryn Studio brand logo</desc><defs><linearGradient id="gradient_0" gradientUnits="userSpaceOnUse" x1="425.64038" y1="172.38205" x2="797.22516" y2="935.52362"><stop offset="0" stop-color="#9B582B"/><stop offset="1" stop-color="#323A42"/></linearGradient></defs><path fill="url(#gradient_0)" transform="scale(0.976562 0.976562)" d="M173.448 889.351C170.065 886.632 164.467 880.915 161.13 877.689C150.236 867.118 139.67 856.214 129.446 844.993C104.466 817.059 82.9568 786.206 65.3851 753.107C34.1639 695.934 15.114 632.918 9.43405 568.023C8.10262 552.36 8.43121 536.755 7.8552 521.12C2.31821 370.823 62.8946 233.126 175.775 132.037C256.595 59.808 358.816 15.9862 466.856 7.25213C501.238 4.26158 540.854 5.76624 575.138 9.38879C672.496 20.4601 764.363 60.2344 839.057 123.654C853.26 135.578 868.688 149.515 881.051 163.349C890.192 171.787 903.846 188.867 911.608 198.495C976.106 279.646 1012.86 379.352 1016.47 482.949C1022.33 629.111 981.982 750.182 881.914 858.531C793.624 953.848 671.206 1010.36 541.393 1015.72C531.807 1016.11 522.005 1015.68 512.389 1015.54C504.293 1015.42 495.189 1015.97 487.239 1015.61C459.015 1014.34 426.796 1011.86 399.385 1004.96C391.348 1002.96 383.203 1001.41 375.269 998.85C360.963 994.235 344.954 991.161 331.128 985.511C323.632 983.101 314.507 978.849 307.245 975.73C271.045 960.182 237.371 939.92 206.012 916.142C195.333 908.043 183.143 898.675 173.448 889.351Z"/><defs><linearGradient id="gradient_1" gradientUnits="userSpaceOnUse" x1="200.20166" y1="112.34333" x2="566.37402" y2="583.6579"><stop offset="0" stop-color="#FF7B1A"/><stop offset="1" stop-color="#985E3A"/></linearGradient></defs><path fill="url(#gradient_1)" transform="scale(0.976562 0.976562)" d="M173.448 889.351C170.065 886.632 164.467 880.915 161.13 877.689C150.236 867.118 139.67 856.214 129.446 844.993C104.466 817.059 82.9568 786.206 65.3851 753.107C34.1639 695.934 15.114 632.918 9.43405 568.023C8.10262 552.36 8.43121 536.755 7.8552 521.12C2.31821 370.823 62.8946 233.126 175.775 132.037C256.595 59.808 358.816 15.9862 466.856 7.25213C501.238 4.26158 540.854 5.76624 575.138 9.38879C672.496 20.4601 764.363 60.2344 839.057 123.654C853.26 135.578 868.688 149.515 881.051 163.349L880.725 164.163C878.008 164.774 877.552 164.194 874.937 164.27C869.665 169.539 863.382 177.569 858.436 183.439C849.704 193.817 840.864 204.102 831.915 214.293L800.383 249.441C795.13 255.314 787.402 263.411 783.118 269.859C776.446 263.016 770.544 256.561 763.537 249.872C703.982 192.293 626.449 156.927 543.927 149.7C529.207 148.416 506.548 148.747 491.79 149.082C489.652 150.753 486.819 149.968 485.454 151.723C483.181 154.645 482.931 155.545 478.776 154.913C477.125 153.569 477.548 153.159 477.485 150.895C472.815 149.595 473.031 153.843 467.52 152.336L466.633 152.934C466.559 153.747 467.021 156.711 466.885 156.939C463.166 163.191 450.606 170.038 446.706 175.045C436.167 188.576 424.196 196.291 411.108 206.912C405.844 211.184 397.451 213.393 393.224 218.662C389.819 221.861 381.463 228.313 377.551 231.297C372.093 235.46 365.462 238.334 359.902 242.784L319.167 275.852C316.907 277.724 310.6 284.9 309.134 285.718C297.245 292.379 283.845 297.461 272.689 305.296C263.743 311.579 259.38 323.416 252.176 331.111C237.896 346.365 216.85 352.258 200.883 365.305C198.123 367.56 195.586 369.95 192.83 372.186C190.964 373.617 185.151 376.385 183.675 377.81C179.885 381.472 176.151 386.502 172.464 390.348C171.489 391.365 169.526 391.442 168.082 391.586C167.652 393.827 169.391 394.595 168.802 395.442C166.924 398.145 165.862 397.332 166.564 400.977L165.708 402.865L167.257 402.704C166.386 405.033 163.928 405.461 162.936 407.011C161.859 408.694 160.144 417.958 158.724 418.478C154.179 431.635 151.339 451.108 149.593 464.88C140.314 536.544 152.415 609.353 184.376 674.164C203.628 713.629 235.986 756.846 269.727 785.244C261.689 794.806 252.726 803.876 244.221 813.034L204.152 856.012C197.768 862.724 191.457 869.507 185.223 876.36C183.809 877.892 174.242 888.755 173.448 889.351Z"/><path fill="#9A572A" transform="scale(0.976562 0.976562)" d="M158.724 418.478C158.974 414.688 164.862 397.9 166.487 393.19C184.112 341.16 213.48 293.886 252.313 255.031C304.093 202.961 370.528 167.932 442.744 154.622C456.75 152.017 477.513 149.142 491.79 149.082C489.652 150.753 486.819 149.968 485.454 151.723C483.181 154.645 482.931 155.545 478.776 154.913C477.125 153.569 477.548 153.159 477.485 150.895C472.815 149.595 473.031 153.843 467.52 152.336L466.633 152.934C466.559 153.747 467.021 156.711 466.885 156.939C463.166 163.191 450.606 170.038 446.706 175.045C436.167 188.576 424.196 196.291 411.108 206.912C405.844 211.184 397.451 213.393 393.224 218.662C389.819 221.861 381.463 228.313 377.551 231.297C372.093 235.46 365.462 238.334 359.902 242.784L319.167 275.852C316.907 277.724 310.6 284.9 309.134 285.718C297.245 292.379 283.845 297.461 272.689 305.296C263.743 311.579 259.38 323.416 252.176 331.111C237.896 346.365 216.85 352.258 200.883 365.305C198.123 367.56 195.586 369.95 192.83 372.186C190.964 373.617 185.151 376.385 183.675 377.81C179.885 381.472 176.151 386.502 172.464 390.348C171.489 391.365 169.526 391.442 168.082 391.586C167.652 393.827 169.391 394.595 168.802 395.442C166.924 398.145 165.862 397.332 166.564 400.977L165.708 402.865L167.257 402.704C166.386 405.033 163.928 405.461 162.936 407.011C161.859 408.694 160.144 417.958 158.724 418.478Z"/><path fill="#FCFAFC" transform="scale(0.976562 0.976562)" d="M511.914 482.481C518.534 473.379 528.512 461.922 535.895 452.969L584.532 394.253L624.203 346.098C632.506 335.986 641.16 324.337 650.627 315.55C653.412 312.965 663.449 310.613 667.233 310.366C678.277 309.647 691.425 309.547 702.511 309.725C715.206 309.929 731.181 309.023 743.539 309.889L744.284 309.943L744.153 471.57C744.029 503.842 744.449 532.954 740.808 564.954C730.434 656.121 676.945 737.173 611.812 799.488C568.585 840.845 521.928 879.183 478.61 921.031C460.331 938.86 442.6 957.243 425.443 976.154C420.893 981.137 416.321 986.11 411.824 991.139C407.675 995.778 403.892 1000.67 399.385 1004.96C391.348 1002.96 383.203 1001.41 375.269 998.85C360.963 994.235 344.954 991.161 331.128 985.511C334.325 982.578 340.993 974.635 344.245 970.996L370.739 941.494C393.34 916.974 416.661 893.129 440.674 869.989C480.041 831.036 525.108 797.751 563.688 757.754C612.063 707.707 651.816 646.356 649.633 574.3C648.579 539.521 650.293 503.932 649.456 469.068C638.156 484.491 619.651 504.622 606.782 519.917L509.771 635.252C506.319 630.236 500.451 623.559 496.483 618.818C489.074 610.052 481.756 601.209 474.531 592.292C442.352 553.157 409.916 514.234 377.225 475.525C375.933 477.279 376.065 477.455 375.969 479.967C375.189 500.505 375.647 521.427 375.66 542.027C376.003 587.213 375.879 632.4 375.29 677.583L372.99 680.921C369.704 685.257 355.733 698.983 351.016 703.815L305.232 751.174C297.611 758.96 290.255 766.991 282.395 774.541C280.673 776.195 279.131 777.986 277.649 779.858L277.586 481.356L277.696 374.174C277.726 353.172 278.04 331.441 277.626 310.528L318.429 310.58C332.621 310.609 345.748 310.198 359.765 313.053C375.361 316.23 380.788 325.036 390.429 336.671L409.791 360.032L471.148 433.386L495.934 463.521C500.873 469.532 506.636 476.953 511.914 482.481Z"/><path fill="#9A572A" transform="scale(0.976562 0.976562)" d="M373.163 470.789C374.816 472.449 375.786 473.707 377.225 475.525C375.933 477.279 376.065 477.455 375.969 479.967C375.189 500.505 375.647 521.427 375.66 542.027C376.003 587.213 375.879 632.4 375.29 677.583L372.99 680.921L372.901 550.503C372.899 524.946 372.286 496.143 373.163 470.789Z"/><defs><linearGradient id="gradient_2" gradientUnits="userSpaceOnUse" x1="247.48305" y1="803.71912" x2="366.36829" y2="955.7301"><stop offset="0" stop-color="#835638"/><stop offset="1" stop-color="#604C41"/></linearGradient></defs><path fill="url(#gradient_2)" transform="scale(0.976562 0.976562)" d="M269.727 785.244C319.21 828.223 374.687 855.477 438.011 868.488C438.829 868.656 440.024 869.455 440.674 869.989C416.661 893.129 393.34 916.974 370.739 941.494L344.245 970.996C340.993 974.635 334.325 982.578 331.128 985.511C323.632 983.101 314.507 978.849 307.245 975.73C271.045 960.182 237.371 939.92 206.012 916.142C195.333 908.043 183.143 898.675 173.448 889.351C174.242 888.755 183.809 877.892 185.223 876.36C191.457 869.507 197.768 862.724 204.152 856.012L244.221 813.034C252.726 803.876 261.689 794.806 269.727 785.244Z"/></svg>